<?xml version="1.0" encoding="utf-8"?>
<svg xmlns="http://www.w3.org/2000/svg" viewBox="0 0 500 500" xmlns:bx="https://boxy-svg.com">
  <defs>
    <bx:export>
      <bx:file format="svg" href="#object-0"/>
      <bx:file format="svg" href="#object-1" path="Untitled 2.svg"/>
      <bx:file format="svg" href="#object-2" path="Untitled 3.svg"/>
      <bx:file format="svg" href="#object-3" path="Untitled 4.svg"/>
    </bx:export>
  </defs>
  <g id="Layer_1">
    <g>
      <path opacity="1.000000" stroke="none" d="M 204.256 96.977 C 204.774 96.935 283.085 96.93 283.745 96.974 C 292.378 97.512 301.043 97.704 309.652 98.465 C 319.376 99.32 329.054 100.641 338.747 101.796 C 348.197 102.927 357.674 103.907 367.077 105.318 C 375.848 106.633 384.5 108.642 393.271 109.965 C 407.354 112.088 420.929 115.928 434.317 120.371 C 447.848 124.862 461.174 129.897 473.146 137.498 C 477.182 140.06 480.897 143.135 484.473 146.262 C 488.871 150.11 488.94 153.682 484.813 157.89 C 473.564 169.366 459.9 177.68 445.047 184.373 C 441.206 186.104 438.801 183.118 436.681 181.232 C 425.869 171.62 412.554 166.38 399.009 161.507 C 383.936 156.084 368.23 152.737 352.435 149.958 C 341.453 148.022 330.293 146.92 319.173 145.748 C 310.253 144.809 301.289 144.013 292.322 143.706 C 272.888 143.039 253.44 142.519 233.995 142.366 C 224.631 142.291 215.225 142.87 205.898 143.719 C 191.544 145.029 177.239 146.832 162.91 148.415 C 144.382 150.463 126.233 154.315 108.48 159.552 C 92.213 164.353 76.93 171.28 63.907 181.928 C 60.627 184.609 57.756 184.929 53.778 183.11 C 40.551 177.065 28.084 170.026 17.444 160.374 C 15.905 158.977 14.518 157.38 13.315 155.712 C 10.526 151.838 12.441 147.594 17.92 143.651 C 34.057 132.037 52.219 124.231 71.589 119.105 C 87.732 114.834 104.171 111.531 120.534 108.024 C 130.919 105.797 141.367 103.775 151.858 102.051 C 159.829 100.743 167.896 99.882 175.952 99.129 C 185.368 98.249 194.822 97.709 204.256 96.977 Z" style="stroke-width: 1; fill: rgb(255, 255, 255);" id="object-0"/>
      <path opacity="1.000000" stroke="none" d="M 324.508 389.561 C 317.011 390.574 309.816 391.529 302.599 392.295 C 298.082 392.777 293.529 392.978 288.939 393.309 C 290.767 378.115 290.613 363.075 289.565 348.224 C 288.287 330.071 274.162 315.667 254.801 312.295 C 238.926 309.53 225.493 314.147 214.74 325.188 C 207.804 332.31 203.999 340.954 203.935 350.78 C 203.86 362.433 203.902 374.087 203.937 385.74 C 203.942 387.175 204.221 388.609 204.431 390.608 C 168.136 386.708 132.618 379.778 98.311 367.383 C 98.311 344.685 98.271 322.069 98.326 299.456 C 98.353 288.285 88.043 277.279 76.102 275.21 C 60.744 272.548 46.504 282.79 43.759 296.487 C 43.583 297.37 43.687 298.308 43.687 299.221 C 43.684 311.102 43.685 322.984 43.685 334.865 C 43.685 335.956 43.685 337.046 43.685 338.135 C 43.368 338.332 43.051 338.525 42.734 338.719 C 37.163 333.844 31.098 329.371 26.154 323.986 C 20.59 317.929 15.693 311.252 11.139 304.469 C 6.481 297.532 3.471 290.052 3.514 281.445 C 3.618 260.36 3.182 239.269 2.876 218.182 C 2.772 210.917 2.409 203.654 2.175 196.388 C 2.141 195.312 2.171 194.232 2.171 193.153 C 2.473 193.058 2.774 192.962 3.076 192.866 C 4.877 195.235 6.637 197.633 8.489 199.969 C 14.611 207.684 22.809 213.113 31.385 218.05 C 52.729 230.337 76.36 237.185 100.355 242.863 C 113.89 246.068 127.713 248.285 141.49 250.474 C 151.468 252.059 161.569 252.985 171.641 253.984 C 182.345 255.045 193.072 255.918 203.798 256.736 C 211.455 257.32 219.126 257.785 226.801 258.104 C 239.927 258.651 253.059 259.377 266.19 259.398 C 277.862 259.416 289.557 258.839 301.205 258.052 C 313.476 257.226 325.742 256.122 337.941 254.637 C 368.189 250.956 398.003 245.291 426.73 235.423 C 444.496 229.323 461.447 221.527 476.281 210.329 C 482.056 205.968 486.882 200.499 492.191 195.581 C 493.112 194.729 494.287 194.117 495.344 193.393 C 495.798 193.564 496.252 193.737 496.705 193.907 C 496.705 207.783 496.705 221.659 496.705 235.535 C 496.705 243.304 496.612 251.073 496.735 258.84 C 496.852 266.333 496.835 273.856 497.547 281.309 C 498.113 287.237 495.762 292.116 492.862 296.896 C 484.321 310.976 473.754 323.579 461.021 334.526 C 457.773 337.318 454.297 339.874 450.094 343.199 C 450.094 341.348 450.094 340.314 450.094 339.278 C 450.094 328.31 450.009 317.344 450.115 306.378 C 450.243 293.084 437.681 280.51 423.008 280.601 C 409.741 280.681 398.948 288.873 395.658 301.073 C 394.959 303.659 394.787 306.431 394.777 309.116 C 394.709 328.996 394.701 348.874 394.792 368.752 C 394.803 371.099 394.279 372.416 391.66 373.118 C 377.241 376.981 362.93 381.21 348.459 384.877 C 340.701 386.842 332.694 387.937 324.508 389.561 Z" style="stroke-width: 1; fill: rgb(255, 255, 255);" id="object-1"/>
      <path opacity="1.000000" stroke="none" d="M 198.907 213.567 C 188.818 212.659 179.066 211.825 169.334 210.825 C 159.033 209.764 148.702 208.834 138.472 207.321 C 125.719 205.433 113.043 203.078 100.364 200.78 C 94.918 199.793 89.541 198.464 84.15 197.222 C 83.482 197.068 82.922 196.498 82.31 196.12 C 82.9 195.723 83.436 195.219 84.082 194.947 C 103.943 186.642 124.73 181.175 145.998 177.256 C 158.091 175.027 170.207 172.837 182.398 171.185 C 191.264 169.988 200.266 169.663 209.214 169.019 C 216.971 168.461 224.736 168.003 233.581 167.429 C 215.557 182.777 217.621 198.423 231.489 215.005 C 220.214 214.503 209.735 214.034 198.907 213.567 Z" style="stroke-width: 1; fill: rgb(255, 255, 255);" id="object-2"/>
      <path opacity="1.000000" stroke="none" d="M 377.922 180.666 C 389.684 183.483 401.045 186.542 411.637 191.663 C 412.477 192.07 413.504 192.423 414.011 193.094 C 414.802 194.138 415.221 195.43 415.797 196.619 C 414.646 197.022 413.528 197.59 412.339 197.805 C 396.976 200.563 381.63 203.428 366.217 205.929 C 358.241 207.222 350.143 207.859 342.096 208.765 C 331.916 209.911 321.736 211.064 311.547 212.146 C 308.212 212.5 304.854 212.663 301.504 212.877 C 294.081 213.347 286.661 213.947 279.23 214.177 C 276.327 214.267 273.395 213.504 269.891 213.058 C 282.555 198.243 281.85 183.819 269.816 169.763 C 274.76 166.527 345.18 173.887 377.922 180.666 Z" style="stroke-width: 1; fill: rgb(255, 255, 255);" id="object-3"/>
    </g>
  </g>
</svg>